<svg width="568" height="501" xmlns="http://www.w3.org/2000/svg" fill="none">

 <g>
  <title>Layer 1</title>
  <path id="svg_1" fill="#ffffff" d="m123.121,33.6637c65.12,48.8889 135.16,148.0173 160.879,201.2093c25.719,-53.192 95.759,-152.3204 160.879,-201.2093c46.987,-35.27553 123.121,-62.5701 123.121,24.2827c0,17.3452 -9.945,145.7126 -15.778,166.5546c-20.275,72.453 -94.155,90.933 -159.875,79.748c114.875,19.551 144.097,84.311 80.986,149.071c-119.86,122.992 -172.272,-30.859 -185.702,-70.281c-2.462,-7.227 -3.614,-10.608 -3.631,-7.733c-0.017,-2.875 -1.169,0.506 -3.631,7.733c-13.43,39.422 -65.842,193.273 -185.7023,70.281c-63.1111,-64.76 -33.8889,-129.52 80.9863,-149.071c-65.72,11.185 -139.5995,-7.295 -159.8752,-79.748c-5.83255,-20.842 -15.7778,-149.2094 -15.7778,-166.5546c0,-86.8528 76.1345,-59.55823 123.121,-24.2827z"/>
 </g>
</svg>